HIERARCHY
ROOT Hips
{
  OFFSET 3.13124 94.3669 -3.18751
  CHANNELS  6 Xposition Yposition Zposition Zrotation Xrotation Yrotation
  JOINT LeftUpLeg
  {
    OFFSET 8.64259 1.95398 -2.38835
    CHANNELS 3 Zrotation Xrotation Yrotation
    JOINT LeftLeg
    {
      OFFSET 43.7702 0 0
      CHANNELS 3 Zrotation Xrotation Yrotation
      JOINT LeftFoot
      {
        OFFSET 40.6238 0 0
        CHANNELS 3 Zrotation Xrotation Yrotation
        JOINT LeftToeBase
        {
          OFFSET 12.7242 0 0
          CHANNELS 3 Zrotation Xrotation Yrotation
          End Site
          {
            OFFSET 0 0 0
          }
        }
      }
    }
  }
  JOINT RightUpLeg
  {
    OFFSET -8.2249 1.95398 -2.59336
    CHANNELS 3 Zrotation Xrotation Yrotation
    JOINT RightLeg
    {
      OFFSET 43.5653 0 0
      CHANNELS 3 Zrotation Xrotation Yrotation
      JOINT RightFoot
      {
        OFFSET 40.6238 0 0
        CHANNELS 3 Zrotation Xrotation Yrotation
        JOINT RightToeBase
        {
          OFFSET 12.7242 0 0
          CHANNELS 3 Zrotation Xrotation Yrotation
          End Site
          {
            OFFSET 0 0 0
          }
        }
      }
    }
  }
  JOINT Spine
  {
    OFFSET 0.165834 0.87714 6.61349
    CHANNELS 3 Zrotation Xrotation Yrotation
    JOINT Spine1
    {
      OFFSET 7.38962 1.71661e-005 0
      CHANNELS 3 Zrotation Xrotation Yrotation
      JOINT Spine2
      {
        OFFSET 11.9445 1.14441e-005 0
        CHANNELS 3 Zrotation Xrotation Yrotation
        JOINT Spine3
        {
          OFFSET 14.7254 4.19617e-005 0
          CHANNELS 3 Zrotation Xrotation Yrotation
          JOINT Spine4
          {
            OFFSET 10.9679 0 0
            CHANNELS 3 Zrotation Xrotation Yrotation
            JOINT RightShoulder
            {
              OFFSET 2.46616 -1.6653 3.69651
              CHANNELS 3 Zrotation Xrotation Yrotation
              JOINT RightArm
              {
                OFFSET 13.0012 0 0
                CHANNELS 3 Zrotation Xrotation Yrotation
                JOINT RightForeArm
                {
                  OFFSET 28.7848 1.52588e-005 0
                  CHANNELS 3 Zrotation Xrotation Yrotation
                  JOINT RightHand
                  {
                    OFFSET 26.5688 1.52588e-005 0
                    CHANNELS 3 Zrotation Xrotation Yrotation
                    End Site
                    {
                      OFFSET 0 0 0
                    }
                  }
                }
              }
            }
            JOINT LeftShoulder
            {
              OFFSET 2.38034 -1.29275 -3.75231
              CHANNELS 3 Zrotation Xrotation Yrotation
              JOINT LeftArm
              {
                OFFSET 16.3182 6.10352e-005 0
                CHANNELS 3 Zrotation Xrotation Yrotation
                JOINT LeftForeArm
                {
                  OFFSET 27.0901 0 0
                  CHANNELS 3 Zrotation Xrotation Yrotation
                  JOINT LeftHand
                  {
                    OFFSET 24.5451 1.52588e-005 0
                    CHANNELS 3 Zrotation Xrotation Yrotation
                    End Site
                    {
                      OFFSET 0 0 0
                    }
                  }
                }
              }
            }
            JOINT Neck
            {
              OFFSET 5.0226 -0.0266342 0
              CHANNELS 3 Zrotation Xrotation Yrotation
              JOINT Head
              {
                OFFSET 6.69363 2.86102e-005 0
                CHANNELS 3 Zrotation Xrotation Yrotation
                End Site
                {
                  OFFSET 0 0 0
                }
              }
            }
          }
        }
      }
    }
  }
}
MOTION
Frames:	10
Frame Time:	0.0333333
58.6316 92.6692 33.5309 -86.5252 38.3682 -94.7245 -179.472 4.97778 82.0344 -20.5298 23.7134 12.3118 46.5417 29.233 22.8863 28.7808 3.67654e-006 5.72161e-006 177.191 8.4485 86.1512 -32.1452 -37.972 -2.72106 19.9713 -31.6392 -37.8549 28.7808 1.55674e-005 2.11505e-005 0.89825 6.48039 -91.5944 13.8785 1.61692 -0.456143 2.20829 1.59494 -0.525294 -20.3334 1.68149 0.0401777 -0.320737 1.68152 0.0401574 103.735 18.2788 -66.6541 134.333 63.0818 141.915 -63.9313 -19.0737 -82.1482 117.213 -37.132 -28.0119 -71.9659 -0.647281 117.091 169.144 -82.2492 116.683 -27.995 -8.68291 -78.7724 -7.23466 2.08853 -53.7306 42.2592 -2.91377 46.8023 -85.2539 6.75133 -39.7233 
57.6135 96.0994 33.9617 -87.0949 31.1627 -96.8294 -177.373 13.5158 74.55 -40.975 32.9416 22.887 26.9154 14.9068 14.658 28.7808 3.67654e-006 5.72161e-006 175.829 -2.84051 83.7347 -9.99727 -39.1045 -2.28908 15.0046 -22.3108 -28.7654 28.7808 1.55674e-005 2.11505e-005 1.11239 6.44807 -89.377 14.0028 2.38543 -0.346698 2.33409 2.36785 -0.451406 -20.2189 2.37927 0.386643 -0.206189 2.37926 0.38662 104.018 17.1998 -65.4818 -179.713 63.1466 90.334 -59.2401 -39.6781 -69.1344 83.0764 -50.2042 -60.2135 -71.3839 -2.06316 118.277 -130.646 -72.663 -176.482 -61.0294 6.72688 -96.3747 -27.0891 3.42554 -19.7743 43.2338 1.31727 48.4482 -85.6133 11.2051 -41.4413 
56.6887 96.85 34.9693 -87.1175 24.161 -97.6987 -178.094 13.857 73.7541 -36.9423 29.8625 18.6962 24.1975 16.7017 17.4456 28.7808 3.67654e-006 5.72161e-006 174.771 -5.96921 82.1481 -4.15333 -38.2446 -2.19917 14.9486 -17.7859 -22.6902 28.7808 1.55674e-005 2.11505e-005 1.24873 6.48863 -89.17 13.9352 2.74135 -0.114746 2.26718 2.73364 -0.235563 -20.2903 2.64878 0.715614 -0.277686 2.64874 0.715581 105.028 13.8108 -61.7362 -127.133 24.8899 33.3206 -6.95282 -59.8217 -6.61907 18.0398 -26.4363 -113.473 -69.9092 -4.84839 121.359 -127.531 -70.7146 -176.303 -55.5514 6.35301 -97.1251 -29.3336 2.71952 -16.0522 46.7372 6.34911 51.8686 -86.4976 15.9918 -44.9488 
56.0625 97.2846 35.9635 -86.1109 17.1586 -98.6295 -177.993 16.7258 72.7062 -34.9516 19.5905 13.9725 19.6209 23.7385 27.5542 28.7808 3.67654e-006 5.72161e-006 174.759 -5.22577 81.3874 -4.09614 -36.295 -2.07202 16.4439 -14.9297 -18.2961 28.7808 1.55674e-005 2.11505e-005 1.26327 6.45555 -88.6016 14.0243 2.83861 -0.0801619 2.35643 2.83215 -0.204801 -20.2022 2.73264 0.775139 -0.189516 2.73262 0.775115 106.201 10.959 -58.0788 -125.9 20.656 34.9207 -8.57042 -67.7953 -8.05113 8.32467 -15.6376 -125.754 -68.6918 -6.73441 123.781 -142.817 -69.9477 168.419 -61.2894 4.30957 -95.1437 -38.1612 2.66676 -12.8719 56.6532 8.91625 40.1675 -88.0682 11.5439 -34.5719 
55.5082 97.1373 36.8442 -85.9071 10.479 -98.1815 -177.946 17.0398 72.9868 -30.2453 1.94753 7.55104 14.788 31.5222 41.0204 28.7808 3.67654e-006 5.72161e-006 175.27 -5.72782 81.8363 -4.02921 -32.4587 -1.82856 17.8393 -13.2803 -15.7016 28.7808 1.55674e-005 2.11505e-005 1.36941 6.45127 -88.5276 14.0548 3.00332 -0.284742 2.38723 2.98784 -0.416769 -20.1753 2.95001 0.631862 -0.162619 2.95002 0.631852 106.351 11.4002 -56.2235 -126.501 21.3407 34.7201 -22.396 -83.6538 -21.4964 1.39296 -4.15992 -133.599 -68.6589 -7.11936 123.708 -160.106 -70.6857 152.245 -65.8839 0.682743 -92.6274 -45.9673 2.71266 -11.4164 52.9024 11.0308 46.477 -84.5092 14.5115 -40.297 
54.9494 95.6019 37.6157 -86.3235 3.19127 -95.7113 179.316 7.94185 77.5195 -11.9219 -29.3305 -4.89952 48.405 -5.86929 -5.03639 28.7808 3.67654e-006 5.72161e-006 176.133 -6.95268 84.7605 -5.07313 -26.4685 -1.47157 21.8363 -11.9782 -13.111 28.7808 1.55674e-005 2.11505e-005 1.63535 6.40943 -90.1892 14.0573 3.14375 -0.407974 2.38997 3.12295 -0.546026 -20.1747 3.11937 0.556578 -0.162037 3.11934 0.55656 106.121 11.3869 -57.5613 -131.743 27.9358 33.0956 -178.616 -67.5377 -177.037 -4.46989 8.61065 -137.917 -69.2562 -5.97639 122.651 -174.21 -73.2748 138.352 -58.2285 -4.4688 -90.4277 -46.356 6.00249 -19.3844 50.4227 11.289 48.6862 -82.7962 15.883 -42.7642 
54.7277 93.3097 38.1701 -87.3042 -6.09151 -95.7305 -179.541 10.6905 75.482 -20.5607 -23.3674 -3.41139 52.0057 -5.93292 -4.62219 28.7808 3.67654e-006 5.72161e-006 -179.991 -9.12082 87.9013 -4.61722 23.163 1.48319 52.7492 -2.43086 -1.26151 28.7808 1.55674e-005 2.11505e-005 1.57143 6.48823 -88.9598 13.9563 2.96479 -0.459984 2.28863 2.94166 -0.59074 -20.2734 2.96585 0.453318 -0.26079 2.96583 0.453302 105.257 9.72228 -64.6265 -139.974 42.8439 30.8095 176.851 -16.4236 -179.998 -12.5134 30.6623 -143.087 -69.8451 -5.03142 121.449 178.596 -74.6207 131.102 -52.4289 -6.3255 -88.3994 -44.213 7.72011 -24.6178 47.0491 9.78658 49.8064 -80.3309 16.9241 -45.8194 
53.7298 92.671 38.5953 -88.5825 -16.0972 -93.461 179.199 7.28005 76.5718 -18.3423 -14.0977 -0.787279 55.9848 -3.39774 -2.49648 28.7808 3.67654e-006 5.72161e-006 -178.673 -10.4586 91.3638 -8.01004 20.8591 1.31484 48.5386 4.11992 3.56316 28.7808 1.55674e-005 2.11505e-005 1.34868 6.55068 -90.3805 13.7492 2.63219 -0.39425 2.08086 2.61232 -0.509805 -20.4753 2.62866 0.411851 -0.462644 2.62866 0.411829 104.55 7.43279 -69.8795 -157.133 58.8324 34.5919 175.46 14.9822 -179.991 -18.5623 30.7391 -125.391 -71.1887 -3.04472 118.37 179.819 -73.7471 133.629 -53.3533 -4.87599 -89.5519 -45.1323 6.75938 -21.7507 38.5322 6.23558 51.7871 -70.9859 18.3073 -54.147 
53.2559 90.8359 39.2221 -89.4853 -24.0131 -93.7635 177.691 7.40032 75.7399 -22.1244 -7.59589 1.55961 63.0684 -3.87556 -2.25364 28.7808 3.67654e-006 5.72161e-006 179.979 0.756449 91.9909 -36.7229 7.09113 0.309917 47.2539 10.747 9.09468 28.7808 1.55674e-005 2.11505e-005 1.21022 6.68673 -90.7655 13.4727 2.47739 -0.141748 1.80414 2.46818 -0.250742 -20.7493 2.40919 0.609767 -0.736611 2.4092 0.609758 104.002 7.11764 -72.9899 -174.412 72.3432 45.2378 173.138 49.7972 -178.523 -29.8281 37.5117 -110.157 -71.7853 -1.28124 117.388 172.797 -72.8651 128.393 -53.9974 -5.09016 -89.4625 -47.5444 7.57381 -22.7227 29.8965 1.29185 55.4255 -64.5116 19.2752 -63.6654 
53.3779 88.5895 39.5632 -90.4405 -29.0928 -95.7577 177.372 8.83622 73.174 -27.3298 -4.63575 2.79276 69.9245 -2.73578 -1.22786 28.7808 3.67654e-006 5.72161e-006 179.751 11.0166 87.6331 -60.46 3.64611 -0.389175 31.6078 9.43776 10.8718 28.7808 1.55674e-005 2.11505e-005 1.32714 6.85426 -89.9589 13.1609 2.66157 0.0454267 1.49265 2.6612 -0.0714242 -21.0629 2.52338 0.84465 -1.05026 2.52338 0.844639 103.493 8.90153 -75.0684 153.159 81.6302 74.816 166.437 74.8659 -172.293 -37.2627 38.1154 -97.5409 -71.8942 -0.276571 117.546 171.288 -72.5967 128.756 -55.9427 -3.94126 -90.4239 -49.7795 7.1606 -20.7669 26.5725 0.088802 54.2729 -60.1807 17.2788 -63.6892 
